<svg width="280" height="280" viewBox="0 0 280 280" fill="none" xmlns="http://www.w3.org/2000/svg">
<rect width="280" height="280" rx="50" fill="#D1D1C7"/>
<g clip-path="url(#clip0_345_17)">
<circle cx="88.4" cy="88.4" r="48.4" fill="black"/>
<path d="M143.2 88.4C143.2 61.6694 164.869 40 191.6 40V40C218.331 40 240 61.6694 240 88.4V88.4C240 115.131 218.331 136.8 191.6 136.8H143.2V88.4Z" fill="black"/>
<path d="M40 191.6C40 164.869 61.6694 143.2 88.4 143.2H136.8V191.6C136.8 218.331 115.131 240 88.4 240V240C61.6694 240 40 218.331 40 191.6V191.6Z" fill="black"/>
<circle cx="191.6" cy="191.6" r="48.4" fill="black"/>
</g>
<defs>
<clipPath id="clip0_345_17">
<rect width="200" height="200" fill="white" transform="translate(40 40)"/>
</clipPath>
</defs>
</svg>
